<svg xmlns="http://www.w3.org/2000/svg" viewBox="0 0 400 260" role="img" aria-labelledby="t d"><title id="t">Banhoppning</title><desc id="d">Oxer, vattenhinder och cavaletti ovanifrån.</desc><defs>
  <pattern id="grid" width="20" height="20" patternUnits="userSpaceOnUse"><path d="M20 0H0V20" fill="none" stroke="#e2e8f0" stroke-width="1"/></pattern>
  <pattern id="pole" width="22" height="10" patternUnits="userSpaceOnUse"><rect width="11" height="10" fill="#ffffff"/><rect x="11" width="11" height="10" fill="#1d4ed8"/></pattern>
</defs><rect width="400" height="260" rx="18" fill="#f8fafc"/><rect width="400" height="260" rx="18" fill="url(#grid)"/><path d="M70 238 L70 190 C70 150 260 170 260 120 C260 82 120 100 120 70 L120 30" fill="none" stroke="#2563eb" stroke-width="2.2" stroke-dasharray="7 7" stroke-linecap="round"/><rect x="50.0" y="47.0" width="90" height="10" fill="url(#pole)" stroke="#1e293b" stroke-width="1.6"/><rect x="47.0" y="43.0" width="6" height="18" rx="1.5" fill="#fff" stroke="#1e293b" stroke-width="1.6"/><rect x="137.0" y="43.0" width="6" height="18" rx="1.5" fill="#fff" stroke="#1e293b" stroke-width="1.6"/><rect x="50.0" y="67.0" width="90" height="10" fill="url(#pole)" stroke="#1e293b" stroke-width="1.6"/><rect x="47.0" y="63.0" width="6" height="18" rx="1.5" fill="#fff" stroke="#1e293b" stroke-width="1.6"/><rect x="137.0" y="63.0" width="6" height="18" rx="1.5" fill="#fff" stroke="#1e293b" stroke-width="1.6"/><rect x="250.0" y="145.0" width="100" height="10" fill="url(#pole)" stroke="#1e293b" stroke-width="1.6"/><rect x="247.0" y="141.0" width="6" height="18" rx="1.5" fill="#fff" stroke="#1e293b" stroke-width="1.6"/><rect x="347.0" y="141.0" width="6" height="18" rx="1.5" fill="#fff" stroke="#1e293b" stroke-width="1.6"/><rect x="250.0" y="165.0" width="100" height="10" fill="url(#pole)" stroke="#1e293b" stroke-width="1.6"/><rect x="247.0" y="161.0" width="6" height="18" rx="1.5" fill="#fff" stroke="#1e293b" stroke-width="1.6"/><rect x="347.0" y="161.0" width="6" height="18" rx="1.5" fill="#fff" stroke="#1e293b" stroke-width="1.6"/><rect x="62.0" y="146.0" width="96" height="44" rx="3" fill="#bfdbfe" stroke="#1e293b" stroke-width="1.8"/><path d="M72.0 162.72 q9.5 -7 19.0 0 t19.0 0 t19.0 0 t19.0 0" fill="none" stroke="#2563eb" stroke-width="1.6" opacity=".8"/><path d="M72.0 175.92000000000002 q9.5 -7 19.0 0 t19.0 0 t19.0 0 t19.0 0" fill="none" stroke="#2563eb" stroke-width="1.6" opacity=".8"/><rect x="268.0" y="44.0" width="84" height="10" fill="url(#pole)" stroke="#1e293b" stroke-width="1.6"/><rect x="268.0" y="57.0" width="84" height="10" fill="url(#pole)" stroke="#1e293b" stroke-width="1.6"/><rect x="268.0" y="70.0" width="84" height="10" fill="url(#pole)" stroke="#1e293b" stroke-width="1.6"/><g stroke="#dc2626" fill="#dc2626"><line x1="95" y1="124" x2="95" y2="106" stroke-width="3.2" stroke-linecap="round"/><path d="M88 110 L95 98 L102 110 z" stroke="none"/></g><circle cx="152" cy="96" r="13" fill="#fff" stroke="#111" stroke-width="2.2"/><text x="152" y="100.94" text-anchor="middle" font-family="Georgia, serif" font-weight="700" font-size="14.95" fill="#111">1</text><g stroke="#dc2626" fill="#dc2626"><line x1="300" y1="216" x2="300" y2="198" stroke-width="3.2" stroke-linecap="round"/><path d="M293 202 L300 190 L307 202 z" stroke="none"/></g><circle cx="362" cy="190" r="13" fill="#fff" stroke="#111" stroke-width="2.2"/><text x="362" y="194.94" text-anchor="middle" font-family="Georgia, serif" font-weight="700" font-size="14.95" fill="#111">3</text><g stroke="#dc2626" fill="#dc2626"><line x1="110" y1="230" x2="110" y2="212" stroke-width="3.2" stroke-linecap="round"/><path d="M103 216 L110 204 L117 216 z" stroke="none"/></g><circle cx="168" cy="208" r="13" fill="#fff" stroke="#111" stroke-width="2.2"/><text x="168" y="212.94" text-anchor="middle" font-family="Georgia, serif" font-weight="700" font-size="14.95" fill="#111">2</text><g stroke="#dc2626" fill="#dc2626"><line x1="310" y1="122" x2="310" y2="104" stroke-width="3.2" stroke-linecap="round"/><path d="M303 108 L310 96 L317 108 z" stroke="none"/></g><circle cx="364" cy="96" r="13" fill="#fff" stroke="#111" stroke-width="2.2"/><text x="364" y="100.94" text-anchor="middle" font-family="Georgia, serif" font-weight="700" font-size="14.95" fill="#111">4</text></svg>